# Object "object01":
# ComRec:
g mesh01
# No. points 8:
v -40.8865 -50.4105 -32.1839
v -40.8865 -50.4105 32.1839
v -56.1902 26.4719 -43.4215
v -56.1902 26.4719 38.8162
v 26.1082 -50.4105 -32.1839
v 26.1082 -50.4105 32.1839
v 39.4349 29.756 -43.4215
v 39.4349 29.756 38.8162

# No. normals 30:
vn 0 -0.13882 -0.99032
vn 0.00293 -0.08537 0.99635
vn -0.98076 -0.19522 0
vn 0.98646 -0.16399 0
vn -0.03432 0.999411 0
vn 0 -1 0
vn 0 -0.13882 -0.99032
vn 0 -1 0
vn -0.98076 -0.19522 0
vn 0.00293 -0.08537 0.99635
vn 0 -1 0
vn -0.98076 -0.19522 0
vn 0 -0.13882 -0.99032
vn -0.03432 0.999411 0
vn -0.98076 -0.19522 0
vn 0.00293 -0.08537 0.99635
vn -0.03432 0.999411 0
vn -0.98076 -0.19522 0
vn 0 -0.13882 -0.99032
vn 0 -1 0
vn 0.98646 -0.16399 0
vn 0.00293 -0.08537 0.99635
vn 0 -1 0
vn 0.98646 -0.16399 0
vn 0 -0.13882 -0.99032
vn -0.03432 0.999411 0
vn 0.98646 -0.16399 0
vn 0.00293 -0.08537 0.99635
vn -0.03432 0.999411 0
vn 0.98646 -0.16399 0

# No. texture coordinates 8:
vt 0 0
vt 0 0
vt 0 1
vt 0 1
vt 1 0
vt 1 0
vt 1 1
vt 1 1

# No. faces 6:
f 3/3/13 7/7/25 5/5/19 1/1/7
f 6/6/22 8/8/28 4/4/16 2/2/10
f 2/2/12 4/4/18 3/3/15 1/1/9
f 7/7/27 8/8/30 6/6/24 5/5/21
f 4/4/17 8/8/29 7/7/26 3/3/14
f 5/5/20 6/6/23 2/2/11 1/1/8


