# Object "Plane":
# Begin Group:
# ComRec:
g mesh12
# No. points 18:
v 0.80301 -0.45322 -0.22571
v 9.87482 -0.45317 -15.4461
v 17.1322 -0.45317 -15.8493
v 23.2809 -0.45317 -15.1437
v 29.833 -0.45317 -12.1198
v 33.058 -0.45317 -7.98713
v 34.873 -0.45317 -4.45921
v 35.175 -0.45312 -0.22571
v 0.80301 -0.45322 -0.22571
v 0.80301 0.54678 -0.22571
v 9.87482 0.54679 -15.4461
v 17.1322 0.54680 -15.8493
v 23.2809 0.54682 -15.1437
v 29.833 0.54683 -12.1198
v 33.058 0.54683 -7.98713
v 34.873 0.54683 -4.45921
v 35.175 0.54693 -0.22571
v 0.80301 0.54678 -0.22571

# No. normals 58:
vn -0.85899 0 -0.51199
vn -0.05547 0 -0.99846
vn 0.11401 0 -0.99348
vn 0.41904 0 -0.90797
vn 0.78836 0 -0.61521
vn 0.88922 0 -0.45748
vn 0.99747 0 -0.07115
vn 0 0 1
vn 0 -1 0
vn 0 1 0
vn 0 -1 0
vn 0 1 -0.00001
vn 0 -1 0
vn 0 1 0
vn 0 -1 0
vn 0 1 0
vn -0.00001 -1 0.00001
vn 0.00002 1 -0.00003
vn 0 -1 0
vn 0 1 0
vn -0.85899 0 -0.51199
vn 0 -1 0
vn 0 0 1
vn -0.85899 0 -0.51199
vn 0 -1 0
vn -0.05547 0 -0.99846
vn 0.02937 0 -0.999568
vn 0 -1 0
vn 0.26993 0 -0.96288
vn 0 -1 0
vn 0.62119 0 -0.78366
vn 0 -1 0
vn 0.84249 0 -0.53871
vn 0 -1 0
vn 0.96292 0 -0.26980
vn -0.00001 -1 0.00001
vn 0.99747 0 -0.07115
vn 0 -1 0.00001
vn 0 0 1
vn -0.85899 0 -0.51199
vn 0 1 0
vn 0 0 1
vn -0.85899 0 -0.51199
vn 0 1 0
vn -0.05547 0 -0.99846
vn 0.02937 0 -0.999568
vn 0 1 0
vn 0.26993 0 -0.96288
vn 0 1 -0.00001
vn 0.62119 0 -0.78366
vn 0 1 0
vn 0.84249 0 -0.53871
vn 0 1 0
vn 0.96292 0 -0.26980
vn 0.00001 1 -0.00001
vn 0.99747 0 -0.07115
vn 0.00001 1 -0.00001
vn 0 0 1

# No. texture coordinates 18:
vt 0 0
vt 0 1
vt 0.11111 0
vt 0.11111 1
vt 0.22222 0
vt 0.22222 1
vt 0.33333 0
vt 0.33333 1
vt 0.44444 0
vt 0.44444 1
vt 0.55556 0
vt 0.55556 1
vt 0.66667 0
vt 0.66667 1
vt 0.77778 0
vt 0.77778 1
vt 0.88889 0
vt 0.88889 1

# No. faces 20:
f 10/2/40 11/4/43 2/3/24 1/1/21
f 11/4/45 12/6/46 3/5/27 2/3/26
f 12/6/46 13/8/48 4/7/29 3/5/27
f 13/8/48 14/10/50 5/9/31 4/7/29
f 14/10/50 15/12/52 6/11/33 5/9/31
f 15/12/52 16/14/54 7/13/35 6/11/33
f 16/14/54 17/16/56 8/15/37 7/13/35
f 17/16/58 10/18/42 1/17/23 8/15/39
f 1//22 2//25 3//28
f 10//41 12//47 11//44
f 3//28 4//30 8//38
f 12//47 17//57 13//49
f 4//30 5//32 6//34
f 13//49 15//53 14//51
f 4//30 6//34 7//36
f 13//49 16//55 15//53
f 4//30 7//36 8//38
f 13//49 17//57 16//55
f 8//38 1//22 3//28
f 17//57 12//47 10//41


# ComRec:
g mesh13
# No. points 18:
v -0.80298 -0.45322 -0.22571
v -9.87479 -0.45317 -15.4461
v -17.1322 -0.45317 -15.8493
v -23.2809 -0.45317 -15.1437
v -29.833 -0.45317 -12.1198
v -33.058 -0.45317 -7.98713
v -34.873 -0.45317 -4.45921
v -35.175 -0.45312 -0.22571
v -0.80298 -0.45322 -0.22571
v -0.80298 0.54678 -0.22571
v -9.87479 0.54679 -15.4461
v -17.1322 0.54680 -15.8493
v -23.2809 0.54682 -15.1437
v -29.833 0.54683 -12.1198
v -33.058 0.54683 -7.98713
v -34.873 0.54683 -4.45921
v -35.175 0.54693 -0.22571
v -0.80298 0.54678 -0.22571

# No. normals 58:
vn 0.85899 0 -0.51199
vn 0.05547 0 -0.99846
vn -0.11401 0 -0.99348
vn -0.41904 0 -0.90797
vn -0.78836 0 -0.61521
vn -0.88922 0 -0.45748
vn -0.99747 0 -0.07115
vn 0 0 1
vn 0 -1 0
vn 0 1 0
vn 0 -1 0
vn 0 1 -0.00001
vn 0 -1 0
vn 0 1 0
vn 0 -1 0
vn 0 1 0
vn 0.00001 -1 0.00001
vn -0.00002 1 -0.00003
vn 0 -1 0
vn 0 1 0
vn 0.85899 0 -0.51199
vn 0 -1 0
vn 0 0 1
vn 0.85899 0 -0.51199
vn 0 -1 0
vn 0.05547 0 -0.99846
vn -0.02937 0 -0.999568
vn 0 -1 0
vn -0.26993 0 -0.96288
vn 0 -1 0
vn -0.62119 0 -0.78366
vn 0 -1 0
vn -0.84249 0 -0.53871
vn 0 -1 0
vn -0.96292 0 -0.26980
vn 0.00001 -1 0.00001
vn -0.99747 0 -0.07115
vn 0 -1 0.00001
vn 0 0 1
vn 0.85899 0 -0.51199
vn 0 1 0
vn 0 0 1
vn 0.85899 0 -0.51199
vn 0 1 0
vn 0.05547 0 -0.99846
vn -0.02937 0 -0.999568
vn 0 1 0
vn -0.26993 0 -0.96288
vn 0 1 -0.00001
vn -0.62119 0 -0.78366
vn 0 1 0
vn -0.84249 0 -0.53871
vn 0 1 0
vn -0.96292 0 -0.26980
vn -0.00001 1 -0.00001
vn -0.99747 0 -0.07115
vn -0.00001 1 -0.00001
vn 0 0 1

# No. texture coordinates 18:
vt 0 0
vt 0 1
vt 0.11111 0
vt 0.11111 1
vt 0.22222 0
vt 0.22222 1
vt 0.33333 0
vt 0.33333 1
vt 0.44444 0
vt 0.44444 1
vt 0.55556 0
vt 0.55556 1
vt 0.66667 0
vt 0.66667 1
vt 0.77778 0
vt 0.77778 1
vt 0.88889 0
vt 0.88889 1

# No. faces 20:
f 28/20/98 19/19/79 20/21/82 29/22/101
f 29/22/103 20/21/84 21/23/85 30/24/104
f 30/24/104 21/23/85 22/25/87 31/26/106
f 31/26/106 22/25/87 23/27/89 32/28/108
f 32/28/108 23/27/89 24/29/91 33/30/110
f 33/30/110 24/29/91 25/31/93 34/32/112
f 34/32/112 25/31/93 26/33/95 35/34/114
f 35/34/116 26/33/97 19/35/81 28/36/100
f 21//86 20//83 19//80
f 29//102 30//105 28//99
f 26//96 22//88 21//86
f 31//107 35//115 30//105
f 24//92 23//90 22//88
f 32//109 33//111 31//107
f 25//94 24//92 22//88
f 33//111 34//113 31//107
f 26//96 25//94 22//88
f 34//113 35//115 31//107
f 21//86 19//80 26//96
f 28//99 30//105 35//115


# End Group:

