# Object "Spirit_Blacks_simpler":
# ComRec:
g mesh01
# No. points 72:
v 35.621 -27.2709 50.5676
v 35.621 -27.708 56.8553
v 11.057 -9.5437 42.0404
v 11.99 -10.8824 63.633
v 36.943 -26.3874 50.5676
v 36.943 -26.8247 56.8553
v 12.82 -7.7275 42.0404
v 13.753 -9.0662 63.633
v 35.867 -32.264 50.159
v 35.867 -32.701 56.4466
v 36.943 -32.701 56.4466
v 36.943 -32.264 50.1589
v -35.621 -27.2709 50.5676
v -35.621 -27.708 56.8553
v -11.057 -9.5437 42.0404
v -11.99 -10.8824 63.633
v -36.943 -26.3874 50.5676
v -36.943 -26.8247 56.8553
v -12.82 -7.7275 42.0404
v -13.753 -9.0662 63.633
v -35.867 -32.264 50.159
v -35.867 -32.701 56.4466
v -36.943 -32.701 56.4466
v -36.943 -32.264 50.1589
v 8.71212 3.17737 82.7916
v 8.71212 3.17737 87.5913
v 8.71212 9.30591 82.7916
v 8.71212 9.30591 87.5913
v 11.5715 3.17737 82.7916
v 11.5715 3.17737 87.5913
v 11.5715 9.30591 82.7916
v 11.5715 9.30591 87.5913
v 14.8456 3.17737 82.7916
v 14.8456 3.17737 87.5913
v 14.8456 9.30591 87.5913
v 14.8456 9.30591 82.7916
v 11.5715 7.99686 76.519
v 11.5715 3.17737 76.519
v 14.8456 3.17737 76.519
v 14.8456 7.99686 76.519
v 11.733 7.75906 76.519
v 11.733 3.41517 76.519
v 14.684 3.41517 76.519
v 14.684 7.75906 76.519
v 11.733 8.84993 82.4072
v 11.733 3.41517 82.4072
v 14.684 3.41517 82.4072
v 14.684 8.84993 82.4072
v -8.7121 3.17737 82.7916
v -8.7121 3.17737 87.5913
v -8.7121 9.30591 82.7916
v -8.7121 9.30591 87.5913
v -11.5715 3.17737 82.7916
v -11.5715 3.17737 87.5913
v -11.5715 9.30591 82.7916
v -11.5715 9.30591 87.5913
v -14.8456 3.17737 82.7916
v -14.8456 3.17737 87.5913
v -14.8456 9.30591 87.5913
v -14.8456 9.30591 82.7916
v -11.5715 7.99686 76.519
v -11.5715 3.17737 76.519
v -14.8456 3.17737 76.519
v -14.8456 7.99686 76.519
v -11.733 7.75906 76.519
v -11.733 3.41517 76.519
v -14.684 3.41517 76.519
v -14.684 7.75906 76.519
v -11.733 8.84993 82.4072
v -11.733 3.41517 82.4072
v -14.684 3.41517 82.4072
v -14.684 8.84993 82.4072

# No. normals 262:
vn 0.19435 -0.18865 -0.96262
vn 0.16325 -0.15847 0.97377
vn -0.58458 -0.81095 -0.02502
vn 0.61198 0.79055 0.02257
vn -0.71557 0.69461 0.07398
vn -0.00009 0.08156 -0.99667
vn -0.99880 -0.04893 -0.00340
vn 0 -0.06938 0.99759
vn 1 0 0
vn 0 -0.99759 -0.06933
vn -0.15716 -0.23515 -0.95917
vn -0.16505 -0.16021 0.97319
vn 0.57118 -0.81885 -0.05692
vn -0.61709 0.78499 0.05460
vn 0.71557 0.69461 0.07398
vn 0.05271 0.07887 -0.99549
vn 0.99880 -0.04893 -0.00340
vn -0.05271 -0.07889 0.99549
vn -1 0 0
vn 0 -0.99759 -0.06933
vn 0 0 -1
vn 0 0 1
vn 0 1 0
vn 0 -1 0
vn 0 -1 0
vn 0 0 1
vn 0 1 0
vn 1 0 0
vn 0 0.97891 -0.20429
vn -1 0 0
vn 0 -1 0
vn 1 0 0
vn 0 0 -1
vn 0 0 -1
vn 0 0 -1
vn 0 0 -1
vn 0 -0.98327 0.18216
vn 1 0 0
vn 0 1 0
vn -1 0 0
vn 0 0 -1
vn 0 0 -1
vn 0 0 1
vn 0 1 0
vn 0 -1 0
vn 0 -1 0
vn 0 0 1
vn 0 1 0
vn -1 0 0
vn 0 0.97891 -0.20429
vn 1 0 0
vn 0 -1 0
vn -1 0 0
vn 0 0 -1
vn 0 0 -1
vn 0 0 -1
vn 0 0 -1
vn 0 -0.98327 0.18216
vn -1 0 0
vn 0 1 0
vn 1 0 0
vn 0 0 -1
vn 0.09852 -0.05431 -0.99365
vn -0.99880 -0.04893 -0.00340
vn -0.58458 -0.81095 -0.02502
vn 0.08199 -0.11443 0.99004
vn -0.99880 -0.04893 -0.00340
vn -0.58458 -0.81095 -0.02502
vn 0.19435 -0.18865 -0.96262
vn -0.71557 0.69461 0.07398
vn -0.58458 -0.81095 -0.02502
vn 0.16325 -0.15847 0.97377
vn -0.71557 0.69461 0.07398
vn -0.58458 -0.81095 -0.02502
vn 0.09852 -0.05431 -0.99365
vn 1 0 0
vn 0.61198 0.79055 0.02257
vn 0.08199 -0.11443 0.99004
vn 1 0 0
vn 0.61198 0.79055 0.02257
vn 0.19435 -0.18865 -0.96262
vn -0.71557 0.69461 0.07398
vn 0.61198 0.79055 0.02257
vn 0.16325 -0.15847 0.97377
vn -0.71557 0.69461 0.07398
vn 0.61198 0.79055 0.02257
vn -0.00009 0.08156 -0.99667
vn 0 -0.99759 -0.06933
vn -0.99880 -0.04893 -0.00340
vn -0.99880 -0.04893 -0.00340
vn 0 -0.99759 -0.06933
vn 0 -0.06938 0.99759
vn 0 -0.06938 0.99759
vn 0 -0.99759 -0.06933
vn 1 0 0
vn -0.00009 0.08156 -0.99667
vn 0 -0.99759 -0.06933
vn 1 0 0
vn -0.05319 -0.07959 -0.99541
vn 0.99880 -0.04893 -0.00340
vn 0.57118 -0.81885 -0.05692
vn -0.10915 -0.11985 0.98677
vn 0.99880 -0.04893 -0.00340
vn 0.57118 -0.81885 -0.05692
vn -0.15716 -0.23515 -0.95917
vn 0.71557 0.69461 0.07398
vn 0.57118 -0.81885 -0.05692
vn -0.16505 -0.16021 0.97319
vn 0.71557 0.69461 0.07398
vn 0.57118 -0.81885 -0.05692
vn -0.05319 -0.07959 -0.99541
vn -1 0 0
vn -0.61709 0.78499 0.05460
vn -0.10915 -0.11985 0.98677
vn -1 0 0
vn -0.61709 0.78499 0.05460
vn -0.15716 -0.23515 -0.95917
vn 0.71557 0.69461 0.07398
vn -0.61709 0.78499 0.05460
vn -0.16505 -0.16021 0.97319
vn 0.71557 0.69461 0.07398
vn -0.61709 0.78499 0.05460
vn 0.05271 0.07887 -0.99549
vn 0 -0.99759 -0.06933
vn 0.99880 -0.04893 -0.00340
vn 0.99880 -0.04893 -0.00340
vn 0 -0.99759 -0.06933
vn -0.05271 -0.07889 0.99549
vn -0.05271 -0.07889 0.99549
vn 0 -0.99759 -0.06933
vn -1 0 0
vn 0.05271 0.07887 -0.99549
vn 0 -0.99759 -0.06933
vn -1 0 0
vn 0 0 -1
vn 0 -1 0
vn 0 0 1
vn 0 -1 0
vn 0 0 -1
vn 0 1 0
vn 0 0 1
vn 0 1 0
vn 0 0 -1
vn 0 -1 0
vn -1 0 0
vn 0 0 1
vn 0 -1 0
vn 0 0 -1
vn -1 0 0
vn 0 0.99766 -0.06842
vn 0 0 1
vn 0 1 0
vn 0 -1 0
vn 1 0 0
vn 0 -1 0
vn 1 0 0
vn 0 0 1
vn 0 0 1
vn 1 0 0
vn 0 1 0
vn 0 0.99471 -0.10269
vn 1 0 0
vn 0 0.97891 -0.20429
vn 0 0 -1
vn -1 0 0
vn -1 0 0
vn 0 0 -1
vn 0 -1 0
vn 0 -1 0
vn 0 0 -1
vn 1 0 0
vn 0 0.97891 -0.20429
vn 0 0 -1
vn 1 0 0
vn 0 0 -1
vn 1 0 0
vn 0 -0.98327 0.18216
vn 0 0 -1
vn 0 1 0
vn 1 0 0
vn 0 0 -1
vn -1 0 0
vn 0 1 0
vn 0 0 -1
vn -1 0 0
vn 0 -0.98327 0.18216
vn 0 -0.98327 0.18216
vn 0 0 -1
vn 1 0 0
vn 1 0 0
vn 0 0 -1
vn 0 1 0
vn 0 1 0
vn 0 0 -1
vn -1 0 0
vn 0 -0.98327 0.18216
vn 0 0 -1
vn -1 0 0
vn 0 0 -1
vn 0 -1 0
vn 0 0 1
vn 0 -1 0
vn 0 0 -1
vn 0 1 0
vn 0 0 1
vn 0 1 0
vn 0 0 -1
vn 0 -1 0
vn 1 0 0
vn 0 0 1
vn 0 -1 0
vn 0 0 -1
vn 1 0 0
vn 0 0.99766 -0.06842
vn 0 0 1
vn 0 1 0
vn 0 -1 0
vn -1 0 0
vn 0 -1 0
vn -1 0 0
vn 0 0 1
vn 0 0 1
vn -1 0 0
vn 0 1 0
vn 0 0.99471 -0.10269
vn -1 0 0
vn 0 0.97891 -0.20429
vn 0 0 -1
vn 1 0 0
vn 1 0 0
vn 0 0 -1
vn 0 -1 0
vn 0 -1 0
vn 0 0 -1
vn -1 0 0
vn 0 0.97891 -0.20429
vn 0 0 -1
vn -1 0 0
vn 0 0 -1
vn -1 0 0
vn 0 -0.98327 0.18216
vn 0 0 -1
vn 0 1 0
vn -1 0 0
vn 0 0 -1
vn 1 0 0
vn 0 1 0
vn 0 0 -1
vn 1 0 0
vn 0 -0.98327 0.18216
vn 0 -0.98327 0.18216
vn 0 0 -1
vn -1 0 0
vn -1 0 0
vn 0 0 -1
vn 0 1 0
vn 0 1 0
vn 0 0 -1
vn 1 0 0
vn 0 -0.98327 0.18216
vn 0 0 -1
vn 1 0 0

# No. texture coordinates 32:
vt 0 0
vt 0 0
vt 0 1
vt 0 1
vt 1 0
vt 1 0
vt 1 1
vt 1 1
vt 0 0
vt 0 0
vt 0 1
vt 0 1
vt 1 0
vt 1 0
vt 1 1
vt 1 1
vt 0 0
vt 0 0
vt 0 1
vt 0 1
vt 1 0
vt 1 0
vt 1 1
vt 1 1
vt 0 0
vt 0 0
vt 0 1
vt 0 1
vt 1 0
vt 1 0
vt 1 1
vt 1 1

# No. faces 62:
f 3/3/69 7/7/81 5/5/75 1/1/63
f 6/6/78 8/8/84 4/4/72 2/2/66
f 2/2/68 4/4/74 3/3/71 1/1/65
f 7/7/83 8/8/86 6/6/80 5/5/77
f 4/4/73 8/8/85 7/7/82 3/3/70
f 12//96 9//87 1//63 5//75
f 9//89 10//90 2//67 1//64
f 10//92 11//93 6//78 2//66
f 11//95 12//98 5//76 6//79
f 12//97 11//94 10//91 9//88
f 15/11/105 13/9/99 17/13/111 19/15/117
f 18/14/114 14/10/102 16/12/108 20/16/120
f 14/10/104 13/9/101 15/11/107 16/12/110
f 19/15/119 17/13/113 18/14/116 20/16/122
f 16/12/109 15/11/106 19/15/118 20/16/121
f 24//132 17//111 13//99 21//123
f 21//125 13//100 14//103 22//126
f 22//128 14//102 18//114 23//129
f 23//131 18//115 17//112 24//134
f 24//133 21//124 22//127 23//130
f 27/19/139 31/23/148 29/21/143 25/17/135
f 30/22/146 32/24/151 28/20/141 26/18/137
f 28/20/142 32/24/152 31/23/150 27/19/140
f 29/21/144 30/22/147 26/18/138 25/17/136
f 33//153 34//155 30//147 29//144
f 34//157 35//158 32//151 30//146
f 35//160 36//161 31//150 32//152
f 36//162 35//159 34//156 33//154
f 40//172 37//163 31//150 36//161
f 37//165 38//166 29//145 31//149
f 38//168 39//169 33//153 29//144
f 39//171 40//174 36//162 33//154
f 44//184 41//175 37//164 40//173
f 41//175 42//178 38//167 37//164
f 42//178 43//181 39//170 38//167
f 43//181 44//184 40//173 39//170
f 48//196 45//187 41//177 44//186
f 45//189 46//190 42//180 41//176
f 46//192 47//193 43//183 42//179
f 47//195 48//198 44//185 43//182
f 48//197 47//194 46//191 45//188
f 51/27/203 49/25/199 53/29/207 55/31/212
f 54/30/210 50/26/201 52/28/205 56/32/215
f 52/28/206 51/27/204 55/31/214 56/32/216
f 53/29/208 49/25/200 50/26/202 54/30/211
f 57//217 53//208 54//211 58//219
f 58//221 54//210 56//215 59//222
f 59//224 56//216 55//214 60//225
f 60//226 57//218 58//220 59//223
f 64//236 60//225 55//214 61//227
f 61//229 55//213 53//209 62//230
f 62//232 53//208 57//217 63//233
f 63//235 57//218 60//226 64//238
f 68//248 64//237 61//228 65//239
f 65//239 61//228 62//231 66//242
f 66//242 62//231 63//234 67//245
f 67//245 63//234 64//237 68//248
f 72//260 68//250 65//241 69//251
f 69//253 65//240 66//244 70//254
f 70//256 66//243 67//247 71//257
f 71//259 67//246 68//249 72//262
f 72//261 69//252 70//255 71//258


