# Object "Plane":
# ComRec:
g mesh11
# No. points 22:
v -0.50001 41.518 -0.49505
v -0.50001 40.595 -4.25075
v -0.50001 37.762 -8.00643
v -0.50001 31.5025 -12.5528
v -0.50001 24.5841 -14.6612
v -0.50001 18.7858 -14.2
v -0.50001 14.174 -12.4869
v -0.50001 11.802 -9.52185
v -0.50001 10.023 -5.50265
v -0.50001 8.968 -0.62675
v -0.50001 41.518 -0.49505
v 0.49995 41.518 -0.49505
v 0.49996 40.595 -4.25075
v 0.49997 37.762 -8.00643
v 0.49998 31.5025 -12.5528
v 0.49999 24.5841 -14.6612
v 0.49999 18.7858 -14.2
v 0.49999 14.174 -12.4869
v 0.49999 11.802 -9.52185
v 0.49999 10.023 -5.50265
v 0.49999 8.968 -0.62675
v 0.49995 41.518 -0.49505

# No. normals 70:
vn 0 0.97110 -0.23866
vn 0 0.79834 -0.60221
vn 0 0.58767 -0.80910
vn 0 0.29152 -0.95657
vn 0 -0.07929 -0.99685
vn 0 -0.34821 -0.93742
vn 0 -0.78088 -0.62468
vn 0 -0.91443 -0.40475
vn 0 -0.97738 -0.21148
vn 0 -0.00405 0.999992
vn -1 0 0
vn 1 0 0
vn -1 0 0
vn 1 0 0
vn -1 0 0
vn 1 0 0
vn -1 0 0
vn 1 0 0
vn -1 0 0
vn 1 0 0
vn -1 0 0
vn 1 0 0
vn -1 0 0
vn 1 0 0
vn -1 0 0
vn 1 0 0
vn 0 0.97110 -0.23866
vn -1 0 0
vn 0 -0.00405 0.999992
vn 0 0.90320 -0.42921
vn -1 0 0
vn 0 0.70068 -0.71347
vn -1 0 0
vn 0 0.44573 -0.89517
vn -1 0 0
vn 0 0.10801 -0.99415
vn -1 0 0
vn 0 -0.21581 -0.97644
vn -1 0 0
vn 0 -0.58580 -0.81046
vn -1 0 0
vn 0 -0.85476 -0.51903
vn -1 0 0
vn 0 -0.95083 -0.30972
vn -1 0 0
vn 0 -0.97738 -0.21148
vn -1 0 0
vn 0 -0.00405 0.999992
vn 0 0.97110 -0.23866
vn 1 0 0
vn 0 -0.00405 0.999992
vn 0 0.90320 -0.42921
vn 1 0 0
vn 0 0.70068 -0.71347
vn 1 0 0
vn 0 0.44573 -0.89517
vn 1 0 0
vn 0 0.10801 -0.99415
vn 1 0 0
vn 0 -0.21581 -0.97644
vn 1 0 0
vn 0 -0.58580 -0.81046
vn 1 0 0
vn 0 -0.85476 -0.51903
vn 1 0 0
vn 0 -0.95083 -0.30972
vn 1 0 0
vn 0 -0.97738 -0.21148
vn 1 0 0
vn 0 -0.00405 0.999992

# No. texture coordinates 22:
vt 0 0
vt 0 1
vt 0.09091 0
vt 0.09091 1
vt 0.18182 0
vt 0.18182 1
vt 0.27273 0
vt 0.27273 1
vt 0.36364 0
vt 0.36364 1
vt 0.45455 0
vt 0.45455 1
vt 0.54545 0
vt 0.54545 1
vt 0.63636 0
vt 0.63636 1
vt 0.72727 0
vt 0.72727 1
vt 0.81818 0
vt 0.81818 1
vt 0.90909 0
vt 0.90909 1

# No. faces 26:
f 12/2/49 13/4/52 2/3/30 1/1/27
f 13/4/52 14/6/54 3/5/32 2/3/30
f 14/6/54 15/8/56 4/7/34 3/5/32
f 15/8/56 16/10/58 5/9/36 4/7/34
f 16/10/58 17/12/60 6/11/38 5/9/36
f 17/12/60 18/14/62 7/13/40 6/11/38
f 18/14/62 19/16/64 8/15/42 7/13/40
f 19/16/64 20/18/66 9/17/44 8/15/42
f 20/18/66 21/20/68 10/19/46 9/17/44
f 21/20/70 12/22/51 1/21/29 10/19/48
f 9//45 5//37 6//39
f 16//59 20//67 17//61
f 6//39 8//43 9//45
f 19//65 17//61 20//67
f 1//28 2//31 3//33
f 13//53 12//50 14//55
f 1//28 3//33 4//35
f 14//55 12//50 15//57
f 10//47 1//28 4//35
f 12//50 21//69 15//57
f 10//47 4//35 5//37
f 15//57 21//69 16//59
f 6//39 7//41 8//43
f 18//63 17//61 19//65
f 5//37 9//45 10//47
f 20//67 16//59 21//69


