# Object "Stonehenge1rounded":
# ComRec:
g mesh01
# No. points 20:
v -118.055 75.704 -0.46291
v -15.251 75.704 -2.61602
v -117.571 75.704 22.682
v -14.7662 75.704 20.5289
v -15.6096 101.584 -1.8001
v -117.68 101.584 0.26462
v -117.212 101.584 21.8661
v -15.1414 101.584 19.8014
v -120.875 76.0485 -0.08990
v -119.05 101.584 0.57594
v -118.595 101.584 21.6104
v -120.404 76.0485 22.4264
v -12.4183 76.0485 -2.36041
v -11.9465 76.0485 20.1559
v -13.7712 101.584 19.4901
v -14.2272 101.584 -1.54443
v -117.65 101.928 0.55738
v -15.6279 101.928 -1.50532
v -15.1722 101.928 19.5086
v -117.194 101.928 21.5713

# No. normals 64:
vn -0.02021 0.03123 -0.999308
vn 0.02022 0.02839 0.999393
vn -0.99726 0.07071 0.02157
vn 0.99728 0.07072 -0.02090
vn 0 1 0
vn 0 -1 0
vn 0.08524 0.03785 -0.99564
vn -0.01536 0.65014 -0.75966
vn -0.22149 0.03061 -0.97468
vn -0.08523 0.03785 0.99564
vn 0.01536 0.65018 0.75963
vn 0.22144 0.03061 0.97469
vn -0.23832 0.97117 0.00517
vn -0.12094 -0.99266 0.00253
vn 0.12094 -0.99266 -0.00253
vn 0.23839 0.97116 -0.00517
vn -0.16890 0.64730 -0.74329
vn -0.13838 0.64862 0.74843
vn 0.13841 0.64866 -0.74838
vn 0.16882 0.64758 0.74306
vn -0.12148 0.03108 -0.99211
vn -0.06058 -0.99816 0.00127
vn 0.03256 0.03459 -0.99887
vn 0.06058 -0.99816 -0.00127
vn -0.03255 0.03317 0.99892
vn -0.06058 -0.99816 0.00127
vn 0.12145 0.02965 0.99215
vn 0.06058 -0.99816 -0.00127
vn 0.04995 0.36329 -0.93034
vn -0.11337 0.36176 -0.92535
vn -0.04995 0.36262 0.93060
vn 0.11336 0.36119 0.92558
vn -0.99726 0.07071 0.02157
vn -0.12094 -0.99266 0.00253
vn -0.22149 0.03061 -0.97468
vn -0.99726 0.07071 0.02157
vn -0.20681 0.35912 -0.91009
vn -0.23832 0.97117 0.00517
vn -0.99726 0.07071 0.02157
vn -0.11846 0.36368 0.92396
vn -0.23832 0.97117 0.00517
vn -0.99726 0.07071 0.02157
vn -0.12094 -0.99266 0.00253
vn -0.08523 0.03785 0.99564
vn 0.99728 0.07072 -0.02090
vn 0.12094 -0.99266 -0.00253
vn 0.08524 0.03785 -0.99564
vn 0.99728 0.07072 -0.02090
vn 0.12094 -0.99266 -0.00253
vn 0.22144 0.03061 0.97469
vn 0.99728 0.07072 -0.02090
vn 0.20675 0.35929 0.91003
vn 0.23839 0.97116 -0.00517
vn 0.99728 0.07072 -0.02090
vn 0.11848 0.36370 -0.92395
vn 0.23839 0.97116 -0.00517
vn -0.12003 0.99277 0.00260
vn -0.09241 0.65066 -0.75372
vn 0.12006 0.99276 -0.00260
vn 0.06171 0.65134 -0.75627
vn 0.12006 0.99276 -0.00260
vn 0.09236 0.65082 0.75359
vn -0.12003 0.99277 0.00260
vn -0.06169 0.65134 0.75628

# No. texture coordinates 40:
vt 0.70178 -0.22182
vt 0.71147 1.29071
vt 0.31626 1.2873
vt 0.30654 -0.21441
vt 0.73422 -0.22350
vt 0.33682 -0.21574
vt 0.34654 1.28597
vt 0.74391 1.28904
vt -0.18012 0.78992
vt 1.52683 0.82325
vt 1.53445 0.48370
vt -0.17249 0.45037
vt -0.18690 0.80641
vt -0.17880 0.43243
vt 1.54124 0.46722
vt 1.53313 0.84120
vt -0.18062 0.79465
vt 1.52713 0.82802
vt -0.17279 0.44561
vt 1.53497 0.47897
vt 2.08159 0.89483
vt 2.25944 1.77553
vt 2.75968 1.57977
vt 2.61709 0.68528
vt 1.98095 0.91596
vt 2.51644 0.70641
vt 2.66417 1.59951
vt 2.16392 1.79526
vt 1.97389 0.90637
vt 2.15844 1.79764
vt 2.06931 0.88633
vt 2.25144 1.77843
vt 2.61975 0.67094
vt 2.76517 1.57739
vt 2.52433 0.69097
vt 2.67217 1.59661
vt 2.26059 1.78765
vt 2.76034 1.59209
vt 2.66741 1.61128
vt 2.16765 1.80685

# No. faces 20:
f 6/4/30 5/3/29 2/2/23 1/1/21
f 4/8/27 8/7/32 7/6/31 3/5/25
f 12/24/42 11/23/39 10/22/36 9/21/33
f 16/28/54 15/27/51 14/26/48 13/25/45
f 20/12/63 19/11/61 18/10/59 17/9/57
f 2/16/24 4/15/28 3/14/26 1/13/22
f 5/30/29 16/28/55 13/25/47 2/29/23
f 17/9/58 18/10/60 5/18/29 6/17/30
f 9/21/35 10/22/37 6/32/30 1/31/21
f 7/34/31 11/23/40 12/24/44 3/33/25
f 8/20/32 19/11/62 20/12/64 7/19/31
f 14/26/50 15/27/52 8/36/32 4/35/27
f 11/23/41 20/38/63 17/37/57 10/22/38
f 1/31/22 3/33/26 12/24/43 9/21/34
f 14/26/49 4/35/28 2/29/24 13/25/46
f 18/40/59 19/39/61 15/27/53 16/28/56
f 6/32/30 10/22/37 17/37/58
f 11/23/40 7/34/31 20/38/64
f 16/28/55 5/30/29 18/40/60
f 8/36/32 15/27/52 19/39/62


