# Object "Stonehenge3rounded":
# ComRec:
g mesh01
# No. points 20:
v -26.5841 0.38100 1.99585
v -0.19890 0.38100 2.60415
v -26.5717 0.38100 28.621
v 0.11767 0.38100 28.621
v -27.662 0.38100 2.97749
v -27.662 0.38100 27.6145
v 0.89143 0.38100 3.61064
v 1.19557 0.38100 27.6394
v -4.30296 74.5073 6.30565
v -23.7707 74.5073 4.43162
v -23.7396 74.5073 26.1976
v -2.71436 74.5073 26.1976
v -24.1496 74.5073 4.80432
v -24.1496 74.5073 25.7877
v -2.33545 74.5073 25.8249
v -3.893 74.5073 6.71561
v -23.7031 75.934 4.88822
v -4.36435 75.934 6.74983
v -2.81301 75.934 25.7783
v -23.672 75.934 25.741

# No. normals 57:
vn 0.09568 0.05493 -0.99390
vn 0 0.03268 0.999466
vn -0.99888 0.04733 0
vn 0.99880 0.04727 -0.01264
vn 0 1 0
vn 0 -1 0
vn 0.70511 0.07505 -0.70511
vn 0.09142 0.29960 -0.94967
vn -0.70037 0.04998 -0.71202
vn -0.70610 0.05086 0.70628
vn -0.00170 0.30488 0.95239
vn 0.70036 0.05004 0.71203
vn -0.94826 0.31748 0.00141
vn 0.94622 0.31421 -0.07712
vn -0.67846 0.25289 -0.68974
vn -0.68430 0.25148 0.68447
vn 0.68590 0.24306 -0.68590
vn 0.67900 0.24983 0.69032
vn 0.09568 0.05493 -0.99390
vn -0.70037 0.04998 -0.71202
vn 0 -1 0
vn 0.42533 0.06903 -0.90240
vn 0 -1 0
vn -0.38209 0.04521 0.92302
vn 0 -1 0
vn 0.37835 0.04468 0.92458
vn 0 -1 0
vn -0.99888 0.04733 0
vn -0.70037 0.04998 -0.71202
vn 0 -1 0
vn -0.92256 0.05313 0.38217
vn 0 -1 0
vn 0.91956 0.06601 -0.38736
vn 0 -1 0
vn 0.99880 0.04727 -0.01264
vn 0.70036 0.05004 0.71203
vn 0 -1 0
vn 0.42083 0.17937 -0.88923
vn 0.09428 0.17865 -0.97939
vn -0.69308 0.15224 -0.70460
vn -0.37860 0.17403 0.90905
vn 0.37419 0.17313 0.91105
vn -0.90626 0.18193 -0.38157
vn -0.90761 0.18143 0.37858
vn 0.98215 0.18253 -0.04533
vn 0.69323 0.15071 0.70478
vn 0.89856 0.18305 -0.39885
vn 0 1 0
vn -0.87639 0.30729 -0.37083
vn 0.09142 0.29960 -0.94967
vn 0 1 0
vn 0.66896 0.33258 -0.66475
vn 0 1 0
vn 0.36386 0.29800 0.88250
vn 0.94622 0.31421 -0.07712
vn 0 1 0
vn -0.66070 0.35328 0.66232

# No. texture coordinates 44:
vt 0.66988 0.64489
vt 0.69732 0.27208
vt 0.35336 0.18002
vt 0.28763 0.57564
vt 0.71374 0.67041
vt 0.69231 0.68761
vt 0.24058 0.60649
vt 0.22559 0.58251
vt 0.31057 0.07645
vt 0.33200 0.05924
vt 0.77161 0.14413
vt 0.78659 0.16812
vt 0.67804 0.64695
vt 0.70566 0.27165
vt 0.27905 0.57469
vt 0.34599 0.17603
vt 0.67000 0.65291
vt 0.28526 0.58382
vt 0.69945 0.26253
vt 0.35403 0.17008
vt -0.21973 0.90338
vt 1.31849 0.89294
vt 1.32615 0.50289
vt -0.21075 0.44542
vt -0.23991 0.88840
vt -0.23136 0.44171
vt 1.31057 0.49974
vt 1.30471 0.85513
vt 0.28242 0.95556
vt 0.78895 0.95417
vt 0.70350 -0.66017
vt 0.32739 -0.65591
vt 0.32704 0.89493
vt 0.36427 -0.70547
vt 0.76710 -0.70547
vt 0.83839 0.89493
vt 0.81152 0.95188
vt 0.71204 -0.66111
vt 0.32075 -0.65675
vt 0.26340 0.95332
vt 0.30447 0.89722
vt 0.35573 -0.70453
vt 0.77374 -0.70462
vt 0.85740 0.89716

# No. faces 18:
f 10/32/39 9/31/38 2/30/22 1/29/19
f 4/36/26 12/35/42 11/34/41 3/33/24
f 6/24/31 14/23/44 13/22/43 5/21/28
f 16/28/47 15/27/45 8/26/35 7/25/33
f 20/4/56 19/3/53 18/2/51 17/1/48
f 2/12/23 7/11/34 8/10/37 4/9/27 3/8/25 6/7/32 5/6/30 1/5/21
f 9/31/38 16/38/47 7/37/33 2/30/22
f 17/1/50 18/2/52 9/14/38 10/13/39
f 5/40/29 13/39/43 10/32/40 1/29/20
f 11/34/41 14/42/44 6/41/31 3/33/24
f 12/16/42 19/3/54 20/4/57 11/15/41
f 8/44/36 15/43/46 12/35/42 4/36/26
f 14/18/44 20/4/57 17/1/49 13/17/43
f 18/2/52 19/3/55 15/20/45 16/19/47
f 10/13/40 13/17/43 17/1/49
f 14/18/44 11/15/41 20/4/57
f 16/19/47 9/14/38 18/2/52
f 12/16/42 15/20/46 19/3/54


