# Object "Stonehenge5rounded":
# ComRec:
g mesh01
# No. points 20:
v 22.0776 0.94500 -13.9477
v 50.9844 0.94500 -13.9477
v 22.0776 0.94500 16.2503
v 50.9844 0.94500 16.2503
v 20.498 0.94500 -12.4601
v 20.498 0.94500 14.7627
v 52.564 0.94500 -12.4601
v 52.564 0.94500 14.7627
v 46.9788 74.087 -9.80823
v 26.0832 74.087 -9.80823
v 26.0832 74.087 12.1108
v 46.9788 74.087 12.1108
v 25.5485 74.087 -9.2735
v 25.5485 74.087 11.5761
v 47.5135 74.087 11.5761
v 47.5135 74.087 -9.2735
v 26.2107 75.934 -9.16897
v 46.8513 75.934 -9.16897
v 46.8513 75.934 11.4716
v 26.2107 75.934 11.4716

# No. normals 50:
vn 0 0.05650 -0.99840
vn 0 0.05650 0.99840
vn -0.99762 0.06889 0
vn 0.99762 0.06889 0
vn 0 1 0
vn 0 -1 0
vn 0.70490 0.07938 -0.70485
vn 0 0.32707 -0.94500
vn -0.70494 0.07850 -0.70491
vn -0.70487 0.07938 0.70488
vn 0 0.32704 0.94501
vn 0.70493 0.07850 0.70492
vn -0.94133 0.33749 0
vn 0.94133 0.33749 0
vn -0.67850 0.28166 -0.67846
vn -0.67848 0.28164 0.67848
vn 0.67850 0.28166 -0.67846
vn 0.67848 0.28164 0.67848
vn -0.38139 0.07304 -0.92152
vn 0 -1 0
vn 0.38136 0.07352 -0.92150
vn 0 -1 0
vn -0.38135 0.07352 0.92150
vn 0 -1 0
vn 0.38138 0.07304 0.92153
vn 0 -1 0
vn -0.92100 0.07973 -0.38132
vn 0 -1 0
vn -0.92096 0.08021 0.38130
vn 0 -1 0
vn 0.92097 0.08021 -0.38129
vn 0 -1 0
vn 0.92099 0.07973 0.38133
vn 0 -1 0
vn 0.37602 0.20239 -0.90424
vn -0.37605 0.20216 -0.90428
vn -0.37601 0.20238 0.90425
vn 0.37603 0.20215 0.90429
vn -0.90292 0.20832 -0.37595
vn -0.90287 0.20855 0.37594
vn 0.90291 0.20832 0.37597
vn 0.90288 0.20855 -0.37593
vn 0 1 0
vn -0.65292 0.38140 -0.65439
vn 0 1 0
vn 0.65292 0.38140 -0.65439
vn 0 1 0
vn 0.65292 0.38139 0.65440
vn 0 1 0
vn -0.65292 0.38139 0.65440

# No. texture coordinates 60:
vt -0.35904 0.67481
vt 1.135 0.61888
vt 1.135 0.25295
vt -0.35904 0.19703
vt -0.35904 0.67481
vt -0.35904 0.19703
vt 1.135 0.25295
vt 1.135 0.61888
vt -0.35904 0.70092
vt 1.135 0.62827
vt -0.35904 0.70092
vt 1.135 0.62827
vt -0.35904 0.17092
vt 1.135 0.24357
vt -0.35904 0.17092
vt 1.135 0.24357
vt 0.20915 1.22201
vt 0.77257 1.22201
vt 0.69450 -0.40300
vt 0.28722 -0.40300
vt 0.20915 1.19863
vt 0.28722 -0.41997
vt 0.69450 -0.41997
vt 0.77257 1.19863
vt -0.07516 0.64218
vt -0.04056 1.17451
vt 0.32781 1.13187
vt 0.29321 0.59955
vt 0.04060 0.37308
vt 0.06450 0.32927
vt 0.55034 0.27304
vt 0.57954 0.31070
vt 0.62800 1.05621
vt 0.60410 1.10002
vt 0.11826 1.15625
vt 0.08906 1.11858
vt 0.48548 0.77625
vt 0.46383 0.78078
vt 0.48051 0.79849
vt 0.62011 0.85330
vt 0.62408 0.87447
vt 0.64076 0.85676
vt 0.55335 0.78242
vt 0.54937 0.76125
vt 0.53270 0.77896
vt 1.02552 0.21946
vt 1.04617 0.21600
vt 1.0295 0.19830
vt 0.14396 0.84135
vt 0.79560 0.84135
vt 0.79163 0.82019
vt 0.14794 0.82019
vt 0.14396 0.11551
vt 0.14794 0.13668
vt 0.79163 0.13668
vt 0.79560 0.11551
vt 0.12728 0.82365
vt 0.12728 0.13322
vt 0.81228 0.82365
vt 0.81228 0.13322

# No. faces 18:
f 10/20/36 9/19/35 2/18/21 1/17/19
f 4/24/25 12/23/38 11/22/37 3/21/23
f 6/4/29 14/3/40 13/2/39 5/1/27
f 16/8/42 15/7/41 8/6/33 7/5/31
f 20/28/49 19/27/47 18/26/45 17/25/43
f 2/36/22 7/35/32 8/34/34 4/33/26 3/32/24 6/31/30 5/30/28 1/29/20
f 9/10/35 16/8/42 7/5/31 2/9/21
f 17/52/44 18/51/46 9/50/35 10/49/36
f 5/1/27 13/2/39 10/12/36 1/11/19
f 11/14/37 14/3/40 6/4/29 3/13/23
f 12/56/38 19/55/48 20/54/50 11/53/37
f 8/6/33 15/7/41 12/16/38 4/15/25
f 14/58/40 20/54/50 17/52/44 13/57/39
f 18/51/46 19/55/48 15/60/41 16/59/42
f 10/39/36 13/38/39 17/37/44
f 14/45/40 11/44/37 20/43/50
f 16/42/42 9/41/35 18/40/46
f 12/48/38 15/47/41 19/46/48


