# Object "object01":
# ComRec:
g mesh01
# No. points 8:
v -87.21 0 3.3236
v -87.21 0 27.9256
v -84.539 75.934 4.7696
v -84.539 75.934 26.4796
v -60.158 0 3.3236
v -60.158 0 27.9256
v -62.829 75.934 4.7696
v -62.829 75.934 26.4796

# No. normals 30:
vn 0 0.01904 -0.999819
vn 0 0.01904 0.999819
vn -0.999382 0.03515 0
vn 0.999382 0.03515 0
vn 0 1 0
vn 0 -1 0
vn 0 0.01904 -0.999819
vn 0 -1 0
vn -0.999382 0.03515 0
vn 0 0.01904 0.999819
vn 0 -1 0
vn -0.999382 0.03515 0
vn 0 0.01904 -0.999819
vn 0 1 0
vn -0.999382 0.03515 0
vn 0 0.01904 0.999819
vn 0 1 0
vn -0.999382 0.03515 0
vn 0 0.01904 -0.999819
vn 0 -1 0
vn 0.999382 0.03515 0
vn 0 0.01904 0.999819
vn 0 -1 0
vn 0.999382 0.03515 0
vn 0 0.01904 -0.999819
vn 0 1 0
vn 0.999382 0.03515 0
vn 0 0.01904 0.999819
vn 0 1 0
vn 0.999382 0.03515 0

# No. texture coordinates 24:
vt -0.13601 0.02212
vt -0.09703 0.92022
vt 0.18979 0.91949
vt 0.22139 0.02121
vt 0.10869 -0.11797
vt 0.09196 0.72718
vt -0.22232 0.72913
vt -0.24745 -0.11575
vt 0.09683 -0.14980
vt -0.25931 -0.14758
vt -0.23184 0.70359
vt 0.08245 0.70163
vt 1.1377 0.44138
vt 0.90071 0.43733
vt 0.89658 0.66967
vt 1.1336 0.67373
vt 1.237 -0.03947
vt 0.90334 -0.01719
vt 0.94106 0.72879
vt 1.2089 0.71091
vt 1.0594 0.55645
vt 1.1066 0.38447
vt 0.90461 0.32915
vt 0.85743 0.50113

# No. faces 6:
f 3/20/13 7/19/25 5/18/19 1/17/7
f 6/4/22 8/3/28 4/2/16 2/1/10
f 2/8/12 4/7/18 3/6/15 1/5/9
f 7/12/27 8/11/30 6/10/24 5/9/21
f 4/16/17 8/15/29 7/14/26 3/13/14
f 5/24/20 6/23/23 2/22/11 1/21/8


