# Object "TerrainRamp":
# ComRec:
g mesh01
# No. points 6:
v -50.0821 -0.16422 -50.9031
v -50.0821 -0.16422 50.9031
v -0.01619 15.0226 -50.7058
v -0.01619 15.0226 51.1005
v 51.7241 -0.16587 -83.5064
v 51.7241 -0.16587 83.5064

# No. normals 18:
vn -0.29028 0.95694 0
vn -0.21640 0.70463 0.67577
vn -0.21374 0.71331 -0.66746
vn 0.28167 0.95951 0
vn -0.26982 0.89416 -0.35732
vn -0.27183 0.89144 0.36255
vn -0.08168 0.96603 -0.24519
vn -0.08284 0.96501 0.24880
vn -0.21374 0.71331 -0.66746
vn 0.28167 0.95951 0
vn -0.21640 0.70463 0.67577
vn 0.28167 0.95951 0
vn 0.28167 0.95951 0
vn -0.29028 0.95694 0
vn 0.28167 0.95951 0
vn -0.21640 0.70463 0.67577
vn -0.21374 0.71331 -0.66746
vn -0.21374 0.71331 -0.66746

# No. texture coordinates 14:
vt 0.50135 -2.00664
vt 0.50352 -1.00648
vt 0.97577 -1.01127
vt 0.97360 -2.01142
vt 0.35959 0.47213
vt 0.42436 0.03618
vt 0.08483 0.05950
vt 0.15262 0.48635
vt -0.07393 -0.42308
vt 0.29571 0.05101
vt 0.52156 -0.29539
vt 0.67578 0.97756
vt -0.19896 0.87381
vt 0.26557 1.2311

# No. faces 4:
f 2/4/6 4/3/8 3/2/7 1/1/5
f 6/11/11 4/10/8 2/9/6
f 3/14/7 5/13/9 1/12/5
f 4/8/8 6/7/12 5/6/10 3/5/7


